<svg xmlns="http://www.w3.org/2000/svg" width="24" height="24" viewBox="0 0 24 24"><g transform="translate(-295 -40)"><g transform="translate(295 40)"><rect width="24" height="24" fill="none"/><g transform="translate(-0.001 0.013)"><path d="M12,22H4.47a3,3,0,0,1-3-2.53,3.78,3.78,0,0,1,.1-1.42c.35-1.7.69-3.41,1-5.11.32-1.54.62-3.08.94-4.61A3,3,0,0,1,6.16,6H7.28a.17.17,0,0,0,.17-.1c.35-.66.67-1.33,1.06-2a3.92,3.92,0,0,1,3-1.89,4.09,4.09,0,0,1,4.2,2.22l.87,1.65a.15.15,0,0,0,.16.09h1.12A3,3,0,0,1,20.47,8.3c.34,1.63.67,3.27,1,4.91s.68,3.35,1,5a3,3,0,0,1-2.91,3.72Zm0-2h7.48a1,1,0,0,0,1-1.27c-.18-.85-.35-1.7-.52-2.56l-1.5-7.36a1,1,0,0,0-1-.81h-11a1,1,0,0,0-1,.81c-.1.51-.21,1-.31,1.53q-.84,4.15-1.7,8.31a1.3,1.3,0,0,0,0,.65,1,1,0,0,0,1,.7ZM14.31,6a.46.46,0,0,0,0-.09l-.45-.83A2.12,2.12,0,0,0,11,4.26a2.26,2.26,0,0,0-.86.9c-.14.28-.29.55-.44.84Z" fill="rgba(26,26,26,0.7)"/></g></g><g transform="translate(310 42)" fill="#3cb865" stroke="#fff" stroke-width="1"><circle cx="4" cy="4" r="4" stroke="none"/><circle cx="4" cy="4" r="3.5" fill="none"/></g></g></svg>