<svg xmlns="http://www.w3.org/2000/svg" width="24" height="24" viewBox="0 0 24 24"><rect width="24" height="24" fill="none"/><g transform="translate(-0.001 -0.027)"><path d="M12.88,23A7.18,7.18,0,0,0,19,15.73V7.16a1,1,0,0,0-2,0V16a5,5,0,0,1-6,4.9,5.13,5.13,0,0,1-4-5.09V6a3,3,0,0,1,3.56-2.95A3.1,3.1,0,0,1,13,6.15V14a1,1,0,0,1-2,0V8A1,1,0,0,0,9,8v6a3,3,0,0,0,3.56,3A3.09,3.09,0,0,0,15,13.85V6A5,5,0,0,0,9,1.1,5.13,5.13,0,0,0,5,6.19V16a7,7,0,0,0,7.88,7Z" fill="#1a1a1a" fill-rule="evenodd"/></g></svg>