<svg xmlns="http://www.w3.org/2000/svg" width="58" height="58" viewBox="0 0 58 58"><rect width="58" height="58" fill="none"/><g transform="translate(2.417 2.417)"><path d="M27.583,1A26.583,26.583,0,1,0,54.167,27.583,26.583,26.583,0,0,0,27.583,1Zm0,48.333a21.75,21.75,0,1,1,21.75-21.75,21.75,21.75,0,0,1-21.75,21.75Z" transform="translate(-1 -1)" fill="#fff" fill-rule="evenodd"/><path d="M29.525,16.895,12.85,7.228A2.9,2.9,0,0,0,8.5,9.645V28.978a2.9,2.9,0,0,0,4.35,2.417l16.675-9.667a2.9,2.9,0,0,0,0-4.833Z" transform="translate(9.625 7.272)" fill="#fff" fill-rule="evenodd"/></g></svg>