<svg xmlns="http://www.w3.org/2000/svg" width="24" height="21.333" viewBox="0 0 24 21.333"><path d="M23.414,6.586l-6-6A2,2,0,0,0,14,2V4.384a20.17,20.17,0,0,0-5.032.75A7.631,7.631,0,0,0,5.514,7.193,5.952,5.952,0,0,0,4,11.331a7.042,7.042,0,0,0,3.536,6.032A2,2,0,0,0,10.5,15.04c-.646-1.963-.715-2.955,3.5-3.282V14a2,2,0,0,0,3.414,1.414l6-6A2,2,0,0,0,23.414,6.586ZM16,14V9.673c-5.362.08-9.063.966-7.4,5.993A5.1,5.1,0,0,1,6,11.331c0-4.556,5.381-4.956,10-4.994V2l6,6Zm1.031,3.521a3.444,3.444,0,0,0,.874-.388.5.5,0,0,1,.762.426v1.775a2,2,0,0,1-2,2H2a2,2,0,0,1-2-2V4.666a2,2,0,0,1,2-2H7.5a.5.5,0,0,1,.5.5v.187a.5.5,0,0,1-.315.465A10.216,10.216,0,0,0,6.1,4.592a.506.506,0,0,1-.262.074H2.25a.25.25,0,0,0-.25.25V19.083a.25.25,0,0,0,.25.25H16.417a.25.25,0,0,0,.25-.25V18A.5.5,0,0,1,17.031,17.52Z" transform="translate(0 0)" fill="#1a1a1a"/></svg>