<svg xmlns="http://www.w3.org/2000/svg" width="22" height="22" viewBox="0 0 22 22"><rect width="22" height="22" fill="none"/><g transform="translate(0.917 0.917)"><path d="M11.083,1A10.083,10.083,0,1,0,21.167,11.083,10.083,10.083,0,0,0,11.083,1Zm0,18.333a8.25,8.25,0,1,1,8.25-8.25,8.25,8.25,0,0,1-8.25,8.25Z" transform="translate(-1 -1)" fill="#fff"/><path d="M15.583,10.628h-2.75V5.917a.917.917,0,1,0-1.833,0v5.628a.917.917,0,0,0,.917.917h3.667a.917.917,0,0,0,0-1.833Z" transform="translate(-1.833 -1.333)" fill="#fff"/></g></svg>