<svg xmlns="http://www.w3.org/2000/svg" width="39.766" height="39.766" viewBox="0 0 39.766 39.766"><g transform="translate(0 22.167) rotate(-45)"><rect width="24" height="24" fill="none"/><g transform="translate(3.349 6.237)"><path d="M14.763,22.184a1.623,1.623,0,1,0,2.444,2.136l6.829-7.849a1.958,1.958,0,0,0,0-2.622L17.255,6.73a1.619,1.619,0,1,0-2.282,2.3l5.713,6a.4.4,0,0,1,0,.534Z" transform="translate(3.461 -6.224)" fill="#fff"/><path d="M10.682,24.383a1.619,1.619,0,1,0,2.282-2.3L7.315,16.146a.4.4,0,0,1,0-.534l5.81-6.684a1.623,1.623,0,0,0-2.444-2.136L3.852,14.641a1.958,1.958,0,0,0,0,2.622Z" transform="translate(-3.349 -6.237)" fill="#fff"/></g></g></svg>